<?xml version="1.0" ?><!DOCTYPE svg  PUBLIC '-//W3C//DTD SVG 1.1//EN'  'http://www.w3.org/Graphics/SVG/1.1/DTD/svg11.dtd'><svg enable-background="new 0 0 64 64" height="64px" version="1.1" viewBox="0 0 64 64" width="64px" xml:space="preserve" xmlns="http://www.w3.org/2000/svg" xmlns:xlink="http://www.w3.org/1999/xlink"><g id="sanitizer_x2C__personal_care_products"><g><path d="M34,22H24v-8h10V22z M25,21h8v-6h-8V21z" fill="#37474F"/></g><g><path d="M31,15h-4V9h4V15z M28,14h2v-4h-2V14z" fill="#37474F"/></g><g><path d="M39.671,11.036l-2.484-0.414c-2.473-0.413-5-0.622-7.509-0.622H25.5C24.673,10,24,9.327,24,8.5    S24.673,7,25.5,7h1.533c4.338,0,8.652,0.604,12.822,1.795l1.599,0.458L39.671,11.036z M25.5,8C25.224,8,25,8.224,25,8.5    S25.224,9,25.5,9h4.179c2.564,0,5.146,0.214,7.673,0.635l1.977,0.329l0.217-0.217C35.476,8.588,31.266,8,27.033,8H25.5z" fill="#37474F"/></g><path d="M29.667,50H21.5c-1.378,0-2.5-1.122-2.5-2.5v-15c0-1.378,1.122-2.5,2.5-2.5h20.572v1H21.5   c-0.827,0-1.5,0.673-1.5,1.5v15c0,0.827,0.673,1.5,1.5,1.5h8.167V50z" fill="#37474F"/><g id="XMLID_2261_"><path d="M48.5,58h-15c-2.481,0-4.5-2.019-4.5-4.5v-7c0-2.481,2.019-4.5,4.5-4.5h15c2.481,0,4.5,2.019,4.5,4.5v7    C53,55.981,50.981,58,48.5,58z M33.5,43c-1.93,0-3.5,1.57-3.5,3.5v7c0,1.93,1.57,3.5,3.5,3.5h15c1.93,0,3.5-1.57,3.5-3.5v-7    c0-1.93-1.57-3.5-3.5-3.5H33.5z" fill="#37474F"/></g><g id="XMLID_2203_"><g id="XMLID_2202_"><g><path d="M44.096,32.372c0.243-2.918-0.754-5.827-2.737-7.981C39.376,22.236,36.56,21,33.632,21h-9.264      c-2.928,0-5.745,1.236-7.727,3.391c-0.458,0.498-0.858,1.04-1.208,1.609H16.5c0.042,0,0.083,0.01,0.125,0.013      c0.232-0.328,0.478-0.647,0.752-0.945C19.171,23.118,21.719,22,24.368,22h9.264c2.649,0,5.197,1.118,6.991,3.067      c1.794,1.95,2.696,4.582,2.477,7.222L42.374,41h1.003L44.096,32.372z" fill="#37474F"/></g><path d="M16.5,58h-10C5.673,58,5,57.327,5,56.5v-28C5,27.673,5.673,27,6.5,27h10c0.827,0,1.5,0.673,1.5,1.5v28     C18,57.327,17.327,58,16.5,58z M6.5,28C6.224,28,6,28.224,6,28.5v28C6,56.776,6.224,57,6.5,57h10c0.276,0,0.5-0.224,0.5-0.5v-28     c0-0.276-0.224-0.5-0.5-0.5H6.5z" fill="#37474F"/><g><path d="M15,28H8v-7h7V28z M9,27h5v-5H9V27z" fill="#37474F"/></g><g><path d="M14,22H9v-6h5V22z M10,21h3v-4h-3V21z" fill="#37474F"/></g><rect fill="#37474F" height="1" id="XMLID_2281_" width="1" x="12" y="18"/></g><polygon fill="#37474F" points="16,52 7,52 7,33 16,33 16,34 8,34 8,51 16,51   "/><g><polygon fill="#37474F" points="15,46 12,46 12,44 10,44 10,41 12,41 12,39 15,39 15,41 16,41 16,42 14,42 14,40 13,40 13,42      11,42 11,43 13,43 13,45 14,45 14,43 16,43 16,44 15,44    "/></g></g><g><path d="M56,16c-1.103,0-2-0.897-2-2s0.897-2,2-2s2,0.897,2,2S57.103,16,56,16z M56,13c-0.551,0-1,0.449-1,1    s0.449,1,1,1s1-0.449,1-1S56.551,13,56,13z" fill="#37474F"/></g><g><path d="M51.5,31c-0.827,0-1.5-0.673-1.5-1.5s0.673-1.5,1.5-1.5s1.5,0.673,1.5,1.5S52.327,31,51.5,31z M51.5,29    c-0.276,0-0.5,0.224-0.5,0.5s0.224,0.5,0.5,0.5s0.5-0.224,0.5-0.5S51.776,29,51.5,29z" fill="#37474F"/></g><g><path d="M52.5,8C51.673,8,51,7.327,51,6.5S51.673,5,52.5,5S54,5.673,54,6.5S53.327,8,52.5,8z M52.5,6    C52.224,6,52,6.224,52,6.5S52.224,7,52.5,7S53,6.776,53,6.5S52.776,6,52.5,6z" fill="#37474F"/></g><g><path d="M47,13c-1.103,0-2-0.897-2-2s0.897-2,2-2s2,0.897,2,2S48.103,13,47,13z M47,10c-0.551,0-1,0.449-1,1    s0.449,1,1,1s1-0.449,1-1S47.551,10,47,10z" fill="#37474F"/></g><g><path d="M46.5,24c-1.93,0-3.5-1.57-3.5-3.5s1.57-3.5,3.5-3.5c0.199,0,0.394,0.017,0.583,0.048l-0.166,0.986    C46.781,18.012,46.642,18,46.5,18c-1.378,0-2.5,1.122-2.5,2.5s1.122,2.5,2.5,2.5c0.939,0,1.791-0.519,2.223-1.354l0.889,0.459    C49.007,23.274,47.814,24,46.5,24z" fill="#37474F"/></g><g><path d="M50.5,21c-1.378,0-2.5-1.122-2.5-2.5s1.122-2.5,2.5-2.5s2.5,1.122,2.5,2.5S51.878,21,50.5,21z M50.5,17    c-0.827,0-1.5,0.673-1.5,1.5s0.673,1.5,1.5,1.5s1.5-0.673,1.5-1.5S51.327,17,50.5,17z" fill="#37474F"/></g><g><rect fill="#37474F" height="1" width="42.5" x="14.5" y="57"/></g><rect fill="#37474F" height="1" id="XMLID_2255_" width="1" x="58" y="57"/><path d="M35,53.722V52v-4c0-0.552,0.448-1,1-1h9h1h1.722c-0.347-0.595-0.984-1-1.722-1H36c-1.103,0-2,0.897-2,2v4   C34,52.737,34.405,53.375,35,53.722z" fill="#37474F"/></g></svg>