<?xml version="1.0" ?><svg xmlns="http://www.w3.org/2000/svg" width="100" height="100" viewBox="0 0 24 24" fill="none"><g clip-path="url(#clip0_1651_3989)"><path d="M15.9995 11H18.0095V13H15.9995V11Z" fill="black"/><path fill-rule="evenodd" clip-rule="evenodd" d="M5.67171 15.8841L-0.0654297 19.4699L2.92251 12L-0.0654297 4.53014L5.67171 8.11586C7.38392 5.63117 10.2506 4 13.4995 4C18.1753 4 22.0602 7.3769 22.8521 11.8247L22.8833 12L22.8521 12.1753C22.0602 16.6231 18.1753 20 13.4995 20C10.2506 20 7.38392 18.3688 5.67171 15.8841ZM6.35378 10.82L6.40964 10.8499L6.85223 10.0225L7.37754 9.182L7.36976 9.17714C8.72879 7.25364 10.9684 6 13.4995 6C17.1274 6 20.1553 8.57672 20.8497 12C20.1553 15.4233 17.1274 18 13.4995 18C10.9684 18 8.72879 16.7464 7.36976 14.8229L7.37754 14.818L6.85223 13.9775L6.40964 13.1501L6.35378 13.18L6.31755 13.122L5.45871 13.6588L4.6461 14.0935L4.67544 14.1483L4.06452 14.5301L5.07658 12L4.06452 9.46986L4.67544 9.85168L4.6461 9.90654L5.45871 10.3412L6.31755 10.878L6.35378 10.82Z" fill="black"/></g><defs><clipPath id="clip0_1651_3989"><rect width="24" height="24" fill="white"/></clipPath></defs></svg>