<?xml version="1.0" ?><svg xmlns="http://www.w3.org/2000/svg" width="24" height="24" viewBox="0 0 24 24" fill="none"><path d="M6 8H8.01V10H6V8Z" fill="black"/><path d="M11 11H13.01V13H11V11Z" fill="black"/><path d="M8 15H10.01V17H8V15Z" fill="black"/><path d="M15 15H17.01V17H15V15Z" fill="black"/><path fill-rule="evenodd" clip-rule="evenodd" d="M1 12C1 5.92487 5.92487 1 12 1C12.0366 1 12.0732 1.00018 12.1097 1.00054L13.3208 1.01239L13.08 2.19932C13.0276 2.45721 13 2.72486 13 3C13 4.95769 14.4074 6.58878 16.2659 6.93296L16.9419 7.05815L17.067 7.73414C17.4112 9.59261 19.0423 11 21 11C21.2751 11 21.5428 10.9724 21.8007 10.92L22.9876 10.6792L22.9995 11.8903C22.9998 11.9268 23 11.9634 23 12C23 18.0751 18.0751 23 12 23C5.92487 23 1 18.0751 1 12ZM11.0002 3.0549C6.50018 3.55223 3 7.36736 3 12C3 16.9706 7.02944 21 12 21C16.6326 21 20.4478 17.4998 20.9451 12.9998C18.2609 12.9757 15.9991 11.1899 15.2573 8.74272C12.8101 8.00085 11.0243 5.73912 11.0002 3.0549Z" fill="black"/></svg>